<?xml version="1.0" encoding="utf-8"?>
<!-- Generator: Adobe Illustrator 26.3.1, SVG Export Plug-In . SVG Version: 6.00 Build 0)  -->
<svg version="1.1" xmlns="http://www.w3.org/2000/svg" xmlns:xlink="http://www.w3.org/1999/xlink" x="0px" y="0px"
	 viewBox="0 0 2100 2100" style="enable-background:new 0 0 2100 2100;" xml:space="preserve">
<style type="text/css">
	.st0{fill:#CC9966;}
	.st1{fill:#FF0033;}
	.st2{fill:#CC0033;}
	.st3{fill:#990033;}
	.st4{fill:#FFFFFF;}
	.st5{fill:#339933;}
	.st6{fill:#003300;}
</style>
<g id="レイヤー_2">
	<circle class="st0" cx="1050" cy="1050" r="1050"/>
</g>
<g id="ぼうし">
	<g id="Layer3_0_FILL">
		<path class="st1" d="M484.7,1154.4c-54.9,27-98,59.9-129.1,98.6c-31,38.8-61.4,70.9-91.1,96.5c-29.6,25.6-60.9,44.3-93.8,56.2
			c43.1-9.6,94.8-20.7,155.1-33.2c37.5-7.7,73.2-15,107.4-21.7C443.1,1301.9,460.3,1236.5,484.7,1154.4 M1498.5,817
			c0.1,0.2,0.2,0.4,0.3,0.5c46.6,79.5,85,176.2,115.2,290.1l0,0c13.5-8.4,27-16.9,40.4-25.6c13.6-8.9,27.2-18,40.7-27.2
			c13.8-9.6,27.6-19.2,41.4-28.9c14-10.1,27.9-20.4,41.7-30.8c13.4-9.9,26.7-20,39.9-30.4c12.4-9.6,24.6-19.3,36.7-29.2
			c11.2-9.3,22.3-18.6,33.4-28.1c14.4-12.1,28.6-24.6,42.7-37.4c13.8-12.5,25.7-26.3,35.6-41.4l0.5-5.3
			c-44.8,7-110.5,12.7-197.1,17.1c-86.6,4.4-144.8,4.2-174.6-0.6c-29.8-4.8-51.1-9.9-64.1-15.3
			C1518.4,819.1,1507.5,816.6,1498.5,817z"/>
		<path class="st2" d="M1498.8,817.4c-0.1-0.1-0.2-0.3-0.3-0.5c-17.3-29.5-34.4-54-51.1-73.6c-14.3-16.6-25.6-26.7-33.9-30.4
			c-12-5.3-23.7-8.5-35-9.6c-3.5-0.3-6.8-0.5-9.9-0.5l-3.4,0.3c-0.2,0-0.4,0-0.6,0c-17.4,1.3-34.7,3.7-51.9,7.3
			c-57.8,10.9-114.9,24.8-171.3,41.7c-60.1,17.7-118.7,39.1-175.9,64.2c-56.9,24.9-112.9,51.3-168.2,79.2
			C744.5,922.6,694,953,645.9,986.9c-50.1,35.5-98.4,73.3-144.9,113.4l-16.3,54c-24.4,82.1-41.5,147.6-51.4,196.3
			c75.7-14.9,143.2-27.3,202.4-37.2c42.5-7.1,100.5-13.6,174-19.3c18.2-1.5,50.8-3.9,97.8-7.3c42.9-3.1,76.8-5.6,101.6-7.7
			c80.2-6.6,148.3-14.3,204.3-23.2c72.8-11.4,135.9-26,189.3-43.8c54.2-18.1,117.2-48.5,189-91.1c7-4.1,14-8.4,20.9-12.8
			c0.5-0.2,1-0.5,1.4-0.8l0,0C1583.8,993.6,1545.4,896.9,1498.8,817.4z"/>
		<path class="st3" d="M1254,652.4c-18.5-1.1-39.2-1-62,0.3c-59.6,3.3-124.5,13.7-194.6,31.3c-67.8,16.9-147.1,47.2-237.9,90.9
			c-31.1,14.9-61,30.2-89.8,45.8c-22.4,12.2-37.4,20.9-45.1,26c-10,6.6-23.2,24.1-39.5,52.6c-13.6,23.5-28.2,52.4-43.8,86.6
			c-10.2,22.6-23.7,60.7-40.6,114.4c46.5-40.2,94.8-78,144.9-113.4c48.1-34,98.6-64.4,151.4-91.2c55.3-27.9,111.3-54.3,168.2-79.2
			c57.2-25.1,115.8-46.5,175.9-64.2c56.3-16.9,113.4-30.8,171.3-41.7c17.3-3.6,34.6-6.1,51.9-7.3c-12.5-9.5-24.2-17.9-35.3-25.2
			c-18.5-12.4-31.5-19.4-38.8-21.1C1281.5,654.8,1269.4,653.3,1254,652.4z"/>
	</g>
</g>
<g id="はねかざり">
	<g id="Layer2_0_FILL">
		<path class="st4" d="M1592.6,600.4c-5.5,1.1-9.2,1.8-11,2.1c-12.9,2.7-26.4,8.2-40.4,16.6c-6.1,3.6-12.8,8.1-20.1,13.6
			c-2.4-1.9-5.1-3.1-8-3.7c-3.9-0.5-8.3,0.3-12.9,2.6c-3,1.6-6.9,4.3-11.7,8.1c-13.8,11.3-37.7,31.3-71.6,59.9
			c-8.7,7.7-14.8,13.4-18.1,17.3c-4,4.5-9.4,12-16,22.5c-5.2,8.1-9.3,14.8-12.1,20c-1.7-1.2-3.6-2-5.8-2.6c-3-0.7-5.8-0.6-8.5,0.3
			c-2.9,1-5.7,2.9-8.5,5.8c-1.7,1.8-3.9,4.6-6.7,8.3c-8.1,11.2-13.8,19.8-17.3,25.9c-3.7,6.5-8.5,16.8-14.2,30.8
			c-9.3,22.6-16.3,40.9-21.2,55c-1.1-0.9-2.2-1.5-3.4-2.1c-3.1-1.4-6.4-1.8-9.9-1.1c-3.4,0.6-6.4,2.1-8.9,4.5
			c-3.5,3.4-6.8,9.7-9.7,18.9c-8,24.8-13.6,43.3-16.9,55.6c-5.8,20.9-9.9,39.9-12.3,57.2c-4.3,29.4-4.8,63.3-1.8,101.6
			c-2.3,3.1-3.9,6.3-4.6,9.7c-0.7,3.4-0.7,7,0.2,10.7c0.9,3.6,2.3,6.7,4.5,9.3c2.2,2.7,5,4.5,8.1,5.6c1.1,0.3,2.1,0.5,3.2,0.6
			c2.1,1.9,4.5,3.2,7,4c3.7,1.1,7.5,0.5,11.3-1.6c1.8-1.1,3.4-2.3,4.8-3.8c1.4,3.1,3.2,5.5,5.4,7.3c2.3,1.9,5,3.2,8,3.8
			c3.1,0.4,6,0.2,8.8-0.8c2.7-1,5.4-2.7,8.3-5.3c0.7-0.7,3.1-3.2,7.2-7.3c11.8-12,26.8-22.3,45.1-30.7c12-5.6,29-11.8,51-18.5
			c14-4.3,25.4-7.3,34.3-9.1c7-1.4,11.9-2.7,14.7-3.8c5.3-2,9.3-5,12-8.9c1.8-2.7,3-5.8,3.5-9.3c0.3-2,0.4-3.9,0.3-5.8
			c11.6-2.6,20.8-4.2,27.5-4.8c5.3-0.3,8.8-0.7,10.4-1.1c3.8-0.5,7-1.7,9.6-3.4c4.5-3.1,7.3-7.8,8.6-14.1c1.3-6.4,0.4-11.9-2.7-16.5
			c-1-1.5-2.1-2.8-3.4-3.8c15.1-1.9,30-3.7,44.6-5.4c5.3-0.6,9.4-1.4,12.3-2.2c4.4-1.4,7.8-3.6,10.4-6.5c2.1-2.2,3.7-5,4.6-8.3
			c1-3.4,1.2-6.8,0.6-10.2c-0.3-2.3-1-4.5-1.9-6.4c0.2,0,0.4-0.1,0.6-0.2c4.4-1.3,7.9-3.3,10.5-6.1c3.8-3.9,5.6-9.3,5.3-16
			c-0.3-6.7-2.6-11.8-6.7-15.3c-0.7-0.6-1.5-1.2-2.2-1.6c0.2-1.5,0.4-3,0.5-4.6c1.9-0.1,3.8-0.2,5.8-0.3c4.5-0.2,7.8-0.6,9.9-1.1
			c3.7-0.7,6.8-2,9.3-3.8c4.6-3.5,7-8.8,7.3-15.8c0.3-6-1-10.9-4-14.9c6.1-2.2,12-4.1,17.7-5.6c4.2-1,7.2-1.8,9.1-2.6
			c3.3-1.2,6.1-2.8,8.3-4.8c5-4.6,7.4-10.3,7.2-17.3c0-1.5-0.1-2.8-0.3-4c4.4-0.1,8-0.5,10.9-1.3c6.3-1.6,11-4.6,14.1-9.1
			c2.9-4.2,4-9.1,3.5-14.7c-0.5-5.8-2.6-10.3-6.2-13.6c-1.2-1.1-2.4-2-3.7-2.7c0.9-0.7,1.6-1.5,2.2-2.4c2.4-2.8,4-6.2,4.8-10.2
			c0.3-1.3,0.5-2.7,0.6-4.2c4.2-1.1,7.2-2,9.1-2.9c3.8-1.5,6.9-3.5,9.1-6.1c4.2-4.6,5.7-10.6,4.6-18.1c-0.2-1.9-0.6-3.7-1.1-5.3
			c2.6-0.7,5.1-1.4,7.7-2.1c5.1-1.3,9.1-2.7,11.8-4.2c4.3-1.9,7.5-4.5,9.7-7.8c3.4-4.9,4.3-10.8,2.7-17.7c-0.2-1-0.5-1.9-0.8-2.7
			c4.6-0.5,7.9-1.1,9.9-1.6c5.4-1.3,9.6-3.6,12.6-7c3.7-4.4,5.3-10,4.6-16.8c-0.7-6.9-3.4-12-8-15.2c-4.5-3.1-11.2-4.3-20.3-3.7
			c-3.8,0.4-8,1-12.5,1.6c0-1.3-0.1-2.6-0.3-3.8c-0.4-2.7-1.3-5.2-2.7-7.7c0.2-0.1,0.4-0.2,0.6-0.2c3.8-0.7,7-2,9.4-3.8
			c2.8-2,4.9-4.8,6.4-8.3c1.6-3.4,2.3-6.9,2.1-10.5c-0.1-3.6-1.1-7-3-10.2c-1.8-3.1-4.2-5.5-7-7.2c-2.4-1.5-5.9-2.4-10.2-2.7
			c0.4-1.3,0.7-2.6,1-3.8c0.5-3.3,0.4-6.6-0.5-9.9c-0.9-3.4-2.3-6.3-4.3-8.8c-4.5-5.3-11.3-8.1-20.6-8.3c-7.7-0.2-18.7,1.5-33.2,5.1
			c-10.7,2.7-20.3,5.3-29.1,7.8c0.1-0.3,0.2-0.6,0.3-0.8c1.4-3.1,2-6.4,1.9-10.1c-0.1-3.5-0.9-6.8-2.4-9.7c-1.5-3.1-3.6-5.6-6.4-7.5
			c-2.8-1.8-5.6-2.8-8.6-3c-2-0.1-6.3,0.7-12.9,2.4C1600.8,598.8,1597.2,599.6,1592.6,600.4z"/>
	</g>
	<g id="Layer1_0_FILL">
		<path class="st5" d="M1296.3,1168.2c-3.5-5-7.2-9.6-11.2-13.7c-19-19.8-43.1-29.5-72.5-29.1c-5.4,0.9-10.9,2-16.3,3.4
			c-28,6.2-48.8,21.9-62.3,47.3c-16.1,30.1-16,60.3,0.2,90.4c15.9,29.4,40.4,46.1,73.6,50.2c22.8,1.9,43.7-3.6,62.6-16.5
			c27.8-19.1,41.9-45.4,42.2-79.1C1312.8,1201.7,1307.4,1184.1,1296.3,1168.2 M1176.5,1180.2c11.3-11.3,24.9-16.9,40.9-16.9
			c16,0,29.6,5.6,40.9,16.9c11.3,11.3,16.9,24.9,16.9,40.9s-5.6,29.7-16.9,41.1c-11.3,11.3-24.9,16.9-40.9,16.9
			c-16,0-29.6-5.6-40.9-16.9c-11.4-11.4-17.1-25.1-17.1-41.1S1165.1,1191.5,1176.5,1180.2z"/>
		<path class="st6" d="M1217.4,1163.3c-16,0-29.6,5.6-40.9,16.9c-11.4,11.3-17.1,24.9-17.1,40.9s5.7,29.7,17.1,41.1
			c11.3,11.3,24.9,16.9,40.9,16.9c16,0,29.6-5.6,40.9-16.9c11.3-11.4,16.9-25.1,16.9-41.1s-5.6-29.6-16.9-40.9
			C1247,1168.9,1233.3,1163.3,1217.4,1163.3z"/>
	</g>
</g>
<g id="つば">
	<g id="Layer0_0_FILL">
		<path class="st3" d="M1402.6,1212.2c-53.4,17.8-116.5,32.4-189.3,43.8c-56,8.8-124.1,16.6-204.3,23.2c-24.8,2-58.7,4.6-101.6,7.7
			c-47,3.4-79.6,5.9-97.8,7.3c-73.5,5.8-131.5,12.2-174,19.3c-59.2,9.9-126.7,22.3-202.4,37.2c-34.1,6.7-69.9,14-107.4,21.7
			c-60.3,12.6-112,23.6-155.1,33.2c56.2,27.8,115.3,44.9,177.3,51.4c63.6,6.7,127.2,9.7,190.9,9.1c64-0.6,127.7-4.4,191.1-11.2
			c61.6-4.8,123.1-10.8,184.5-18.1c56.2-6,112.7-10.9,169.5-14.9c61.6-5,122.6-13.4,183.2-25.1c56.8-11.5,111.9-28.1,165.3-49.8
			c57.1-23.1,100.9-43.8,131.5-62c30.6-18.2,61.5-37.8,92.7-58.6c31.3-20.8,88.2-69.6,170.8-146.7c82.6-76.9,127.6-147.2,135-211
			c0.9-7.7,1.7-15.3,2.6-22.8l1.4-17.4c-9.9,15.1-21.8,28.9-35.6,41.4c-14.1,12.8-28.3,25.2-42.7,37.4
			c-11.1,9.5-22.2,18.9-33.4,28.1c-12.1,9.9-24.4,19.6-36.7,29.2c-13.2,10.3-26.5,20.4-39.9,30.4c-13.8,10.4-27.7,20.7-41.7,30.8
			c-13.7,9.7-27.5,19.3-41.4,28.9c-13.5,9.2-27.1,18.2-40.7,27.2c-13.4,8.6-26.9,17.1-40.4,25.6c-0.5,0.3-0.9,0.6-1.4,0.8
			c-7,4.4-13.9,8.6-20.9,12.8C1519.8,1163.7,1456.8,1194.1,1402.6,1212.2z"/>
	</g>
</g>
</svg>
