<?xml version="1.0" encoding="UTF-8"?><svg xmlns="http://www.w3.org/2000/svg" viewBox="0 0 489 104"><defs><style>.cls-1{fill:none;}.cls-2{fill:#030;}.cls-3{fill:#fff;}.cls-4{fill:#f03;}.cls-5{fill:#903;}.cls-6{fill:#c96;}.cls-7{fill:#c03;}.cls-8{fill:#393;}</style></defs><g id="_イヤー_2"><circle class="cls-6" cx="52" cy="52" r="40"/></g><g id="_うし"><g id="Layer3_0_FILL"><path class="cls-4" d="M30.46,55.98c-2.09,1.03-3.73,2.28-4.92,3.75-1.18,1.48-2.34,2.7-3.47,3.68-1.13,.97-2.32,1.69-3.57,2.14,1.64-.37,3.61-.79,5.91-1.27,1.43-.29,2.79-.57,4.09-.83,.38-1.86,1.03-4.35,1.96-7.48m38.62-12.85v.02c1.79,3.03,3.25,6.71,4.4,11.05h0c.52-.32,1.03-.65,1.54-.97,.52-.34,1.04-.69,1.55-1.03,.53-.37,1.05-.73,1.58-1.1,.53-.39,1.06-.78,1.59-1.17,.51-.38,1.02-.76,1.52-1.16,.47-.37,.94-.74,1.4-1.11,.43-.35,.85-.71,1.27-1.07,.55-.46,1.09-.94,1.62-1.42,.53-.47,.98-1,1.36-1.58l.02-.2c-1.71,.27-4.21,.48-7.51,.65-3.3,.17-5.52,.16-6.65-.02-1.13-.18-1.95-.38-2.44-.58-.49-.21-.9-.3-1.25-.29Z"/><path class="cls-7" d="M69.1,43.14v-.02c-.67-1.12-1.32-2.06-1.96-2.81-.54-.63-.97-1.02-1.29-1.16-.46-.2-.9-.32-1.33-.37-.13-.01-.26-.02-.38-.02h-.15c-.66,.06-1.32,.15-1.98,.29-2.2,.41-4.38,.94-6.52,1.59-2.29,.67-4.52,1.49-6.7,2.45-2.17,.95-4.3,1.96-6.41,3.02-2.01,1.02-3.94,2.18-5.77,3.47-1.91,1.35-3.75,2.79-5.52,4.32l-.62,2.06c-.93,3.13-1.58,5.62-1.96,7.48,2.88-.57,5.45-1.04,7.71-1.42,1.62-.27,3.83-.52,6.63-.74,.69-.06,1.94-.15,3.72-.28,1.64-.12,2.93-.22,3.87-.29,3.06-.25,5.65-.55,7.78-.88,2.78-.43,5.18-.99,7.21-1.67,2.07-.69,4.46-1.85,7.2-3.47,.27-.16,.53-.32,.8-.49,.02,0,.04-.02,.05-.03h0c-1.15-4.34-2.61-8.03-4.39-11.05Z"/><path class="cls-5" d="M59.77,36.85c-.71-.04-1.49-.04-2.36,.01-2.27,.13-4.74,.52-7.41,1.19-2.58,.65-5.61,1.8-9.06,3.46-1.18,.57-2.32,1.15-3.42,1.75-.85,.47-1.42,.8-1.72,.99-.38,.25-.88,.92-1.5,2-.52,.9-1.08,2-1.67,3.3-.39,.86-.9,2.31-1.55,4.36,1.77-1.53,3.61-2.97,5.52-4.32,1.83-1.29,3.76-2.45,5.77-3.47,2.11-1.06,4.24-2.07,6.41-3.02,2.18-.96,4.41-1.77,6.7-2.45,2.15-.65,4.32-1.17,6.52-1.59,.66-.14,1.32-.23,1.98-.28-.47-.36-.92-.68-1.34-.96-.71-.47-1.2-.74-1.48-.8-.34-.08-.8-.14-1.39-.17Z"/></g></g><g id="_ねかざり"><g id="Layer2_0_FILL"><path class="cls-3" d="M72.67,34.87c-.21,.04-.35,.07-.42,.08-.49,.1-1,.31-1.54,.63-.23,.14-.49,.31-.77,.52-.09-.07-.19-.12-.3-.14-.15-.02-.31,.01-.49,.1-.11,.06-.26,.16-.44,.31-.53,.43-1.44,1.19-2.73,2.28-.33,.29-.56,.51-.69,.66-.15,.17-.36,.46-.61,.86-.2,.31-.35,.56-.46,.76-.06-.04-.14-.08-.22-.1-.11-.03-.22-.02-.32,.01-.11,.04-.22,.11-.32,.22-.06,.07-.15,.17-.26,.32-.31,.43-.53,.75-.66,.99-.14,.25-.32,.64-.54,1.17-.35,.86-.62,1.56-.81,2.09-.04-.03-.08-.06-.13-.08-.12-.05-.24-.07-.38-.04-.13,.02-.24,.08-.34,.17-.13,.13-.26,.37-.37,.72-.3,.95-.52,1.65-.65,2.12-.22,.8-.38,1.52-.47,2.18-.16,1.12-.18,2.41-.07,3.87-.09,.12-.15,.24-.18,.37-.03,.13-.03,.27,0,.41,.03,.14,.09,.26,.17,.35,.09,.1,.19,.17,.31,.21,.04,.01,.08,.02,.12,.02,.08,.07,.17,.12,.27,.15,.14,.04,.29,.02,.43-.06,.07-.04,.13-.09,.18-.15,.05,.12,.12,.21,.21,.28,.09,.07,.19,.12,.3,.15,.12,.02,.23,0,.33-.03,.1-.04,.21-.1,.32-.2,.03-.03,.12-.12,.27-.28,.45-.46,1.02-.85,1.72-1.17,.46-.22,1.11-.45,1.94-.71,.53-.16,.97-.28,1.31-.35,.27-.05,.45-.1,.56-.15,.2-.08,.36-.19,.46-.34,.07-.1,.11-.22,.13-.35,.01-.08,.02-.15,.01-.22,.44-.1,.79-.16,1.05-.18,.2-.01,.33-.03,.4-.04,.15-.02,.27-.06,.37-.13,.17-.12,.28-.3,.33-.54,.05-.24,.01-.45-.1-.63-.04-.06-.08-.11-.13-.15,.58-.07,1.14-.14,1.7-.21,.2-.02,.36-.05,.47-.09,.17-.05,.3-.14,.4-.25,.08-.09,.14-.19,.18-.32,.04-.13,.04-.26,.02-.39-.01-.09-.04-.17-.07-.24,0,0,.02,0,.02,0,.17-.05,.3-.13,.4-.23,.15-.15,.21-.35,.2-.61-.01-.26-.1-.45-.26-.58-.03-.02-.06-.04-.09-.06,0-.06,.01-.12,.02-.18h.22c.17-.02,.3-.03,.38-.05,.14-.03,.26-.08,.35-.15,.17-.13,.27-.33,.28-.6,.01-.23-.04-.42-.15-.57,.23-.09,.46-.16,.68-.21,.16-.04,.27-.07,.35-.1,.13-.04,.23-.11,.32-.18,.19-.17,.28-.39,.27-.66,0-.06,0-.11-.01-.15,.17,0,.3-.02,.41-.05,.24-.06,.42-.18,.54-.35,.11-.16,.15-.34,.13-.56-.02-.22-.1-.39-.24-.52-.04-.04-.09-.08-.14-.1,.03-.03,.06-.06,.09-.09,.09-.11,.15-.24,.18-.39,.01-.05,.02-.1,.02-.16,.16-.04,.27-.08,.35-.11,.15-.06,.26-.13,.35-.23,.16-.17,.22-.4,.18-.69,0-.07-.02-.14-.04-.2,.1-.03,.19-.05,.29-.08,.19-.05,.34-.1,.45-.16,.16-.07,.29-.17,.37-.3,.13-.19,.16-.41,.1-.68,0-.04-.02-.07-.03-.1,.17-.02,.3-.04,.38-.06,.21-.05,.37-.14,.48-.27,.14-.17,.2-.38,.18-.64-.03-.26-.13-.46-.3-.58-.17-.12-.43-.16-.77-.14-.15,.02-.3,.04-.47,.06,0-.05,0-.1-.01-.15-.02-.1-.05-.2-.1-.29,0,0,.02,0,.02,0,.15-.03,.27-.08,.36-.15,.11-.08,.19-.18,.24-.32,.06-.13,.09-.26,.08-.4,0-.14-.04-.27-.12-.39-.07-.12-.16-.21-.27-.27-.09-.06-.22-.09-.39-.1,.02-.05,.03-.1,.04-.15,.02-.13,.01-.25-.02-.38-.03-.13-.09-.24-.16-.33-.17-.2-.43-.31-.79-.32-.29,0-.71,.06-1.27,.19-.41,.1-.77,.2-1.11,.3,0-.01,0-.02,.01-.03,.05-.12,.08-.25,.07-.38,0-.13-.03-.26-.09-.37-.06-.12-.14-.21-.24-.29-.11-.07-.22-.11-.33-.12-.08,0-.24,.03-.49,.09-.1,.02-.24,.05-.41,.09Z"/></g><g id="Layer1_0_FILL"><path class="cls-8" d="M61.38,56.5c-.13-.19-.27-.36-.43-.52-.72-.75-1.64-1.12-2.76-1.11-.21,.03-.41,.08-.62,.13-1.07,.24-1.86,.84-2.37,1.8-.61,1.15-.61,2.3,0,3.44,.6,1.12,1.54,1.76,2.81,1.91,.87,.07,1.66-.14,2.39-.63,1.06-.73,1.59-1.73,1.61-3.01,0-.74-.2-1.41-.62-2.01m-4.56,.46c.43-.43,.95-.65,1.56-.65s1.13,.22,1.56,.65c.43,.43,.65,.95,.65,1.56s-.22,1.13-.65,1.56c-.43,.43-.95,.65-1.56,.65s-1.13-.22-1.56-.65-.65-.96-.65-1.56,.22-1.13,.65-1.56Z"/><path class="cls-2" d="M58.38,56.31c-.61,0-1.13,.22-1.56,.65-.43,.43-.65,.95-.65,1.56s.22,1.13,.65,1.56,.95,.65,1.56,.65,1.13-.22,1.56-.65c.43-.43,.65-.96,.65-1.56s-.22-1.13-.65-1.56c-.43-.43-.95-.65-1.56-.65Z"/></g></g><g id="_ご"><g><path class="cls-3" d="M140.04,69.05c-.45,0-1.07-.02-1.72-.07-5.75-.3-7.75-1.59-9.6-4.19-2.07-2.85-3.74-6.13-5.51-9.15-.89-1.53-1.62-1.85-3.67-1.85l-1.34-.03v7.96c0,4.38,.55,4.71,4.63,5.17v1.8h-15.54v-1.8c4.17-.44,4.61-.79,4.61-5.17v-20.65c0-4.31-.55-4.75-4.61-5.12v-1.8h14.76c4.43,0,7.11,.51,9.23,1.94,2.14,1.42,3.58,3.77,3.58,7.05,0,4.67-3.06,7.3-6.72,8.8,.85,1.61,3,5.1,4.59,7.53,1.9,2.89,3.01,4.28,4.09,5.51,1.3,1.44,2.1,1.92,3.53,2.38l-.32,1.7Zm-20.03-17.34c2.45,0,4.21-.39,5.43-1.44,1.87-1.51,2.65-3.56,2.65-6.33,0-5.65-3.43-7.69-6.79-7.69-1.47,0-2.24,.21-2.58,.53-.41,.34-.53,.94-.53,2.11v12.81h1.83Z"/><path class="cls-3" d="M159.19,58.71h-14.55c.1,1.98,.77,3.55,1.99,4.72,1.22,1.17,2.8,1.75,4.73,1.75,2.7,0,5.19-.84,7.47-2.52v4c-1.26,.84-2.51,1.44-3.74,1.8s-2.69,.54-4.35,.54c-2.28,0-4.12-.47-5.53-1.42-1.41-.94-2.54-2.22-3.38-3.81-.85-1.6-1.27-3.44-1.27-5.54,0-3.15,.89-5.71,2.68-7.68,1.78-1.97,4.1-2.96,6.95-2.96s4.93,.96,6.57,2.88c1.63,1.92,2.45,4.49,2.45,7.71v.52Zm-14.46-2.45h10.41c-.1-1.63-.59-2.89-1.46-3.78s-2.04-1.33-3.51-1.33-2.67,.44-3.61,1.33-1.55,2.14-1.83,3.78Z"/><path class="cls-3" d="M177.08,37.28h4.12v31.42h-8.75c-3.06,0-5.5-.97-7.32-2.9-1.82-1.93-2.73-4.53-2.73-7.78,0-3.04,.96-5.55,2.87-7.51,1.91-1.96,4.35-2.95,7.32-2.95,1.38,0,2.88,.29,4.5,.88v-11.16Zm0,27.91v-13.11c-1.27-.64-2.56-.97-3.87-.97-2.04,0-3.66,.67-4.87,2-1.21,1.33-1.81,3.13-1.81,5.4,0,2.13,.52,3.77,1.57,4.93,.63,.69,1.3,1.15,2,1.39,.7,.24,1.97,.36,3.8,.36h3.17Z"/><path class="cls-3" d="M224.18,68.7v-1.68c3.87-.4,4.09-.73,4.07-5.49l-.02-19.66c-3.75,8.72-8.58,19.82-11.51,26.82h-1.52c-2.69-6.84-6.94-17.61-10.58-26.39-.71,16.2-.73,19.57-.73,21.06,.05,2.71,1.13,3.3,4.73,3.65v1.68h-12.11v-1.68c2.85-.27,4.1-.83,4.5-3.7,.23-1.73,.38-4.19,1.57-21.17,.17-2.45-.23-3.62-4.53-4.01v-1.68h9.99l10.06,23.02,10.37-23.02h9.84v1.68c-4.07,.43-4.55,.85-4.45,4.64l.33,18.76c.1,4.76,.28,4.98,4.42,5.49v1.68h-14.42Z"/><path class="cls-3" d="M255.95,56.26v8.79c0,.71,.24,1.06,.72,1.06s1.27-.37,2.32-1.1v2.5c-.93,.6-1.68,1.01-2.24,1.23-.56,.22-1.15,.33-1.77,.33-1.75,0-2.79-.69-3.1-2.07-1.74,1.35-3.59,2.02-5.56,2.02-1.44,0-2.64-.48-3.6-1.43s-1.44-2.15-1.44-3.59c0-1.3,.47-2.47,1.41-3.5,.94-1.03,2.27-1.84,3.99-2.44l5.24-1.8v-1.1c0-2.49-1.24-3.73-3.73-3.73-2.23,0-4.41,1.15-6.52,3.46v-4.48c1.59-1.87,3.88-2.81,6.86-2.81,2.23,0,4.03,.58,5.38,1.75,.45,.38,.85,.87,1.21,1.5,.36,.62,.59,1.24,.69,1.87,.1,.62,.15,1.8,.15,3.54Zm-4.03,8.34v-6.14l-2.74,1.06c-1.39,.56-2.38,1.11-2.96,1.68s-.87,1.26-.87,2.1,.27,1.55,.82,2.09c.55,.54,1.26,.81,2.13,.81,1.3,0,2.51-.53,3.62-1.6Z"/><path class="cls-3" d="M261.31,55.16c0-2.2,.81-3.95,2.42-5.23,1.61-1.28,3.81-1.92,6.6-1.92h8.52v3.19h-4.18c.81,.82,1.37,1.57,1.69,2.25s.47,1.45,.47,2.32c0,1.08-.31,2.14-.92,3.18s-1.41,1.84-2.37,2.4c-.97,.56-2.55,1-4.76,1.33-1.54,.23-2.32,.76-2.32,1.6,0,.48,.29,.87,.87,1.18,.58,.31,1.62,.63,3.14,.96,2.53,.55,4.16,.99,4.89,1.3,.73,.31,1.38,.76,1.97,1.35,.99,.99,1.48,2.23,1.48,3.73,0,1.96-.87,3.53-2.62,4.7-1.75,1.17-4.08,1.75-7.01,1.75s-5.31-.59-7.07-1.77c-1.76-1.18-2.64-2.76-2.64-4.73,0-2.8,1.73-4.61,5.2-5.42-1.38-.88-2.07-1.76-2.07-2.63,0-.66,.3-1.26,.89-1.8,.59-.54,1.39-.94,2.4-1.19-3.04-1.35-4.57-3.53-4.57-6.54Zm6.73,14.51c-1.38,0-2.51,.29-3.38,.88-.88,.58-1.32,1.33-1.32,2.25,0,2.13,1.92,3.19,5.76,3.19,1.81,0,3.22-.27,4.22-.8,1-.53,1.5-1.29,1.5-2.26s-.63-1.74-1.89-2.35c-1.26-.61-2.89-.91-4.88-.91Zm.97-18.11c-1.11,0-2.05,.38-2.83,1.12-.78,.75-1.17,1.65-1.17,2.7s.38,1.95,1.15,2.64,1.73,1.05,2.9,1.05,2.12-.36,2.89-1.07c.77-.71,1.16-1.6,1.16-2.67s-.39-1.98-1.17-2.7c-.78-.72-1.75-1.08-2.92-1.08Z"/><path class="cls-3" d="M283.73,39.3c.67,0,1.25,.23,1.73,.7,.48,.46,.72,1.03,.72,1.71s-.24,1.23-.72,1.71-1.06,.72-1.73,.72c-.63,0-1.18-.24-1.66-.73-.48-.49-.72-1.05-.72-1.7s.24-1.19,.72-1.68,1.03-.73,1.66-.73Zm-2.02,8.7h4.09v20.69h-4.09v-20.69Z"/><path class="cls-3" d="M306.63,63.86v4.05c-2.05,.76-4.06,1.15-6.03,1.15-3.24,0-5.82-.96-7.75-2.88s-2.89-4.49-2.89-7.71,.94-5.88,2.81-7.87c1.87-1.99,4.34-2.99,7.4-2.99,1.06,0,2.02,.1,2.87,.3,.85,.2,1.89,.58,3.14,1.14v4.36c-2.07-1.32-3.99-1.98-5.76-1.98s-3.36,.65-4.54,1.95c-1.18,1.3-1.78,2.95-1.78,4.96,0,2.11,.64,3.79,1.92,5.04,1.28,1.24,3.01,1.87,5.18,1.87,1.57,0,3.38-.46,5.42-1.37Z"/><path class="cls-3" d="M341.68,42.68c-1.01-3.44-2.5-7.17-7.42-7.17-3.45,0-5.27,2.48-5.27,5.38,0,3.18,2.1,4.97,6.68,7.29,5.93,2.98,9.24,5.64,9.24,10.82,0,6.03-5.08,10.49-12.42,10.49-3.33,0-6.26-.9-8.65-1.69-.36-1.32-1.17-6.17-1.54-8.8l1.92-.46c1.06,3.42,3.82,8.81,9.14,8.81,3.45,0,5.54-2.24,5.54-5.66s-2.01-5.19-6.54-7.63c-5.55-2.99-8.99-5.61-8.99-10.94s4.21-9.71,11.85-9.71c3.43,0,6.24,.8,7.4,.98,.21,1.95,.53,4.49,.95,7.87l-1.89,.42Z"/><path class="cls-3" d="M361.54,48.01h4.59l-14.66,31.24h-4.57l7.02-14.99-7.99-16.25h4.66l5.59,11.69,5.35-11.69Z"/><path class="cls-3" d="M367.53,67.21v-4.41c1.15,.81,2.34,1.47,3.54,1.97,1.21,.5,2.22,.75,3.05,.75s1.59-.21,2.2-.63c.61-.42,.92-.92,.92-1.51s-.2-1.1-.6-1.5c-.4-.4-1.26-.97-2.58-1.72-2.64-1.47-4.37-2.73-5.18-3.77-.82-1.04-1.23-2.18-1.23-3.41,0-1.59,.62-2.89,1.86-3.89,1.24-1,2.83-1.51,4.78-1.51s4.1,.57,6.23,1.71v4.05c-2.43-1.47-4.42-2.2-5.96-2.2-.79,0-1.44,.17-1.92,.51-.49,.34-.73,.78-.73,1.34,0,.48,.22,.94,.66,1.37,.44,.44,1.22,.96,2.33,1.57l1.46,.83c3.45,1.95,5.18,4.11,5.18,6.48,0,1.69-.66,3.08-1.99,4.17-1.33,1.09-3.03,1.63-5.12,1.63-1.23,0-2.32-.13-3.28-.39s-2.17-.75-3.62-1.45Z"/><path class="cls-3" d="M383.18,51.29l7.69-7.56v4.27h6.54v3.69h-6.54v10.13c0,2.37,.98,3.55,2.95,3.55,1.47,0,3.02-.49,4.66-1.46v3.82c-1.57,.89-3.29,1.33-5.15,1.33s-3.43-.55-4.68-1.64c-.39-.33-.71-.7-.97-1.11-.26-.41-.47-.95-.64-1.62-.17-.67-.26-1.94-.26-3.81v-9.18h-3.6v-.4Z"/><path class="cls-3" d="M418.83,58.71h-14.55c.1,1.98,.77,3.55,1.99,4.72,1.22,1.17,2.8,1.75,4.73,1.75,2.7,0,5.19-.84,7.47-2.52v4c-1.26,.84-2.51,1.44-3.74,1.8s-2.69,.54-4.35,.54c-2.28,0-4.12-.47-5.53-1.42-1.41-.94-2.54-2.22-3.38-3.81-.85-1.6-1.27-3.44-1.27-5.54,0-3.15,.89-5.71,2.68-7.68,1.78-1.97,4.1-2.96,6.95-2.96s4.93,.96,6.57,2.88c1.63,1.92,2.45,4.49,2.45,7.71v.52Zm-14.46-2.45h10.41c-.1-1.63-.59-2.89-1.46-3.78s-2.04-1.33-3.51-1.33-2.67,.44-3.61,1.33-1.55,2.14-1.83,3.78Z"/><path class="cls-3" d="M440.2,53.67v15.02h-4.12v-11.52c0-2.29-.31-3.89-.92-4.8-.62-.91-1.69-1.36-3.22-1.36-.85,0-1.64,.2-2.35,.58-.71,.39-1.53,1.08-2.44,2.07v15.02h-4.09v-20.69h4.09v2.72c2.08-2.08,4.12-3.13,6.12-3.13,2.62,0,4.66,1.24,6.1,3.73,2.19-2.52,4.48-3.78,6.86-3.78,2.01,0,3.66,.73,4.96,2.2,1.3,1.47,1.95,3.71,1.95,6.73v12.21h-4.09v-12.26c0-1.72-.35-3.04-1.06-3.96s-1.72-1.37-3.04-1.37c-1.69,0-3.28,.85-4.75,2.56Z"/><path class="cls-3" d="M457.47,67.21v-4.41c1.15,.81,2.34,1.47,3.54,1.97,1.21,.5,2.22,.75,3.05,.75s1.59-.21,2.2-.63c.61-.42,.92-.92,.92-1.51s-.2-1.1-.6-1.5c-.4-.4-1.26-.97-2.58-1.72-2.64-1.47-4.37-2.73-5.18-3.77-.82-1.04-1.23-2.18-1.23-3.41,0-1.59,.62-2.89,1.86-3.89,1.24-1,2.83-1.51,4.78-1.51s4.1,.57,6.23,1.71v4.05c-2.43-1.47-4.42-2.2-5.96-2.2-.79,0-1.44,.17-1.92,.51-.49,.34-.73,.78-.73,1.34,0,.48,.22,.94,.66,1.37,.44,.44,1.22,.96,2.33,1.57l1.46,.83c3.45,1.95,5.18,4.11,5.18,6.48,0,1.69-.66,3.08-1.99,4.17-1.33,1.09-3.03,1.63-5.12,1.63-1.23,0-2.32-.13-3.28-.39s-2.17-.75-3.62-1.45Z"/></g><rect class="cls-1" width="489" height="104"/></g><g id="_ば"><g id="Layer0_0_FILL"><path class="cls-5" d="M65.43,58.18c-2.03,.68-4.44,1.23-7.21,1.67-2.13,.34-4.73,.63-7.78,.88-.95,.08-2.24,.17-3.87,.29-1.79,.13-3.03,.22-3.72,.28-2.8,.22-5.01,.46-6.63,.74-2.26,.38-4.83,.85-7.71,1.42-1.3,.26-2.66,.53-4.09,.83-2.3,.48-4.27,.9-5.91,1.27,2.14,1.06,4.39,1.71,6.76,1.96,2.42,.26,4.85,.37,7.27,.35,2.44-.02,4.86-.17,7.28-.43,2.35-.18,4.69-.41,7.03-.69,2.14-.23,4.29-.42,6.46-.57,2.35-.19,4.67-.51,6.98-.96,2.16-.44,4.26-1.07,6.3-1.9,2.17-.88,3.84-1.67,5.01-2.36,1.17-.69,2.34-1.44,3.53-2.23,1.19-.79,3.36-2.65,6.51-5.59,3.15-2.93,4.86-5.61,5.14-8.04,.03-.29,.06-.58,.1-.87l.05-.66c-.38,.58-.83,1.1-1.36,1.58-.54,.49-1.08,.96-1.62,1.42-.42,.36-.85,.72-1.27,1.07-.46,.38-.93,.75-1.4,1.11-.5,.39-1.01,.78-1.52,1.16-.53,.4-1.06,.79-1.59,1.17-.52,.37-1.05,.74-1.58,1.1-.52,.35-1.03,.69-1.55,1.03-.51,.33-1.02,.65-1.54,.97-.02,.01-.04,.02-.05,.03-.27,.17-.53,.33-.8,.49-2.73,1.62-5.13,2.78-7.2,3.47Z"/></g></g></svg>